<svg xmlns="http://www.w3.org/2000/svg" id="Capa_2" data-name="Capa 2" viewBox="0 0 1108.15 369.38"><defs><style>      .cls-1 {        fill: #f39200;      }      .cls-2 {        fill: #111;      }    </style></defs><g id="Capa_1-2" data-name="Capa 1"><g><g><g><g><polygon class="cls-2" points="447.08 111.55 490.12 180.98 519.56 180.98 562.68 108.42 563.17 198.82 624.04 198.82 623.47 .63 568.54 .63 505.76 106.11 441.13 .63 386.21 .63 386.21 198.82 447.08 198.82 447.08 111.55"></polygon><path class="cls-2" d="m719.98,164.28h75.37l13.28,34.54h69.08L791.08.63h-65.69l-86.64,198.19h67.95l13.28-34.54Zm18.5-48.13l19.19-49.92,19.19,49.92h-38.37Z"></path><path class="cls-2" d="m1003.44,141.55c-6.81,3.91-14.49,5.86-23.02,5.86-6.72,0-12.81-1.09-18.26-3.27-5.45-2.18-10.13-5.36-14.03-9.54-3.91-4.18-6.95-9.22-9.13-15.12-2.18-5.9-3.27-12.49-3.27-19.75s1.09-13.85,3.27-19.75c2.18-5.9,5.22-10.94,9.13-15.12,3.9-4.18,8.58-7.36,14.03-9.54,5.45-2.18,11.53-3.27,18.26-3.27,8.54,0,16.21,1.95,23.02,5.86,6.81,3.91,13.03,9.4,18.66,16.48l40.6-36.24c-9.45-12.35-21.39-21.8-35.83-28.34-14.44-6.54-31.02-9.81-49.73-9.81-15.26,0-29.38,2.41-42.37,7.22-12.99,4.82-24.25,11.67-33.79,20.57-9.54,8.9-16.94,19.44-22.21,31.61-5.27,12.17-7.9,25.61-7.9,40.33s2.63,28.16,7.9,40.33c5.27,12.17,12.67,22.71,22.21,31.61,9.54,8.9,20.8,15.76,33.79,20.57,12.98,4.81,27.11,7.22,42.37,7.22,18.71,0,35.28-3.32,49.73-9.95,14.44-6.63,26.38-16.03,35.83-28.2l-40.6-36.24c-5.63,7.08-11.85,12.58-18.66,16.48Z"></path></g><g><path class="cls-2" d="m343.02,242.18v127.2h765.13v-127.2H343.02Zm114.68,87.01h-11.27v14.52h-20.91v-14.52h-40.1v-13.98l34.03-47.36h22.22l-30.93,44.32h15.44v-12.9h20.26v12.9h11.27v17.01Zm55.16,14.52l-13.75-20.16h-11.71v20.16h-21.46v-75.86h34.68c6.94,0,12.91,1.12,17.93,3.36,5.02,2.24,8.9,5.47,11.65,9.7,2.74,4.23,4.12,9.23,4.12,15.01s-1.37,10.64-4.12,14.79c-2.58,3.9-6.17,6.93-10.76,9.11l16.39,23.89h-22.97Zm94.17,0h-60.9v-75.86h59.49v16.58h-38.25v12.79h33.7v16.04h-33.7v13.87h39.66v16.58Zm68.7,0l-5.91-14.74h-32.17l-5.91,14.74h-21.89l33.49-75.86h21.13l33.59,75.86h-22.32Zm86.04,0h-57.65v-75.86h21.46v58.84h36.19v17.01Zm62.2-58.84h-23.19v58.84h-21.46v-58.84h-23.3v-17.01h67.95v17.01Zm84.15,36.68c-2.13,4.81-5.08,8.98-8.83,12.52-3.76,3.54-8.18,6.29-13.27,8.24-5.09,1.95-10.71,2.93-16.85,2.93s-11.67-.98-16.8-2.93c-5.13-1.95-9.59-4.71-13.38-8.29-3.79-3.58-6.74-7.75-8.83-12.52-2.1-4.77-3.14-10.01-3.14-15.71s1.05-10.94,3.14-15.71c2.09-4.77,5.04-8.94,8.83-12.52,3.79-3.58,8.25-6.34,13.38-8.29,5.13-1.95,10.73-2.93,16.8-2.93s11.76.98,16.85,2.93c5.09,1.95,9.52,4.71,13.27,8.29,3.76,3.58,6.7,7.75,8.83,12.52,2.13,4.77,3.2,10.01,3.2,15.71s-1.07,10.96-3.2,15.77Zm61.39,22.16l-13.75-20.16h-11.71v20.16h-21.46v-75.86h34.68c6.94,0,12.91,1.12,17.93,3.36,5.02,2.24,8.9,5.47,11.65,9.7,2.74,4.23,4.12,9.23,4.12,15.01s-1.37,10.64-4.12,14.79c-2.58,3.9-6.17,6.93-10.76,9.11l16.39,23.89h-22.97Zm89.78-10.78c-2.49,3.72-6.21,6.7-11.16,8.94-4.95,2.24-11.18,3.36-18.69,3.36-6.21,0-12.19-.78-17.93-2.33-5.74-1.55-10.42-3.56-14.03-6.02l7.04-15.82c3.4,2.17,7.32,3.95,11.76,5.36,4.44,1.41,8.87,2.11,13.27,2.11,2.96,0,5.35-.27,7.15-.81,1.81-.54,3.12-1.26,3.96-2.17.83-.9,1.25-1.97,1.25-3.2,0-1.73-.8-3.11-2.38-4.12-1.59-1.01-3.65-1.84-6.18-2.49-2.53-.65-5.33-1.3-8.4-1.95-3.07-.65-6.14-1.48-9.21-2.49-3.07-1.01-5.87-2.33-8.4-3.96-2.53-1.63-4.59-3.76-6.18-6.39-1.59-2.64-2.38-5.98-2.38-10.03,0-4.55,1.25-8.67,3.74-12.35,2.49-3.69,6.23-6.65,11.22-8.89,4.99-2.24,11.2-3.36,18.64-3.36,4.99,0,9.88.56,14.68,1.68,4.8,1.12,9.08,2.76,12.84,4.93l-6.61,15.93c-3.61-1.95-7.19-3.41-10.73-4.39-3.54-.98-6.97-1.46-10.29-1.46-2.96,0-5.35.31-7.15.92-1.81.61-3.11,1.43-3.9,2.44-.8,1.01-1.19,2.17-1.19,3.47,0,1.66.78,2.98,2.33,3.96,1.55.97,3.61,1.77,6.18,2.38,2.56.61,5.38,1.25,8.45,1.9,3.07.65,6.14,1.46,9.21,2.44,3.07.98,5.87,2.28,8.4,3.9,2.53,1.63,4.57,3.76,6.12,6.39,1.55,2.64,2.33,5.94,2.33,9.92,0,4.41-1.25,8.47-3.74,12.19Z"></path><path class="cls-2" d="m965.99,287.69c-2.2-1.95-5.55-2.93-10.02-2.93h-11.92v22.22h11.92c4.48,0,7.82-.97,10.02-2.93,2.2-1.95,3.3-4.66,3.3-8.13s-1.1-6.29-3.3-8.24Z"></path><polygon class="cls-2" points="644 313.15 663.47 313.15 653.74 288.9 644 313.15"></polygon><path class="cls-2" d="m509.34,287.69c-2.2-1.95-5.55-2.93-10.02-2.93h-11.92v22.22h11.92c4.48,0,7.82-.97,10.02-2.93,2.2-1.95,3.3-4.66,3.3-8.13s-1.1-6.29-3.3-8.24Z"></path><path class="cls-2" d="m883.75,290.02c-1.84-1.91-4.01-3.38-6.5-4.39-2.49-1.01-5.18-1.52-8.07-1.52s-5.58.51-8.07,1.52c-2.49,1.01-4.66,2.48-6.5,4.39-1.84,1.91-3.29,4.19-4.33,6.83-1.05,2.64-1.57,5.62-1.57,8.94s.52,6.21,1.57,8.89c1.05,2.67,2.49,4.97,4.33,6.88,1.84,1.91,4.01,3.38,6.5,4.39,2.49,1.01,5.18,1.52,8.07,1.52s5.58-.5,8.07-1.52c2.49-1.01,4.66-2.47,6.5-4.39,1.84-1.91,3.29-4.21,4.33-6.88,1.05-2.67,1.57-5.64,1.57-8.89s-.53-6.3-1.57-8.94c-1.05-2.64-2.49-4.91-4.33-6.83Z"></path></g></g><g><path class="cls-2" d="m286.45,181.96c15.75-18.92,23.2-42.84,20.96-67.35-1.4-15.37-6.51-29.83-14.78-42.35-4.92-7.45-10.97-14.22-18.02-20.1-6.78-5.64-14.2-10.22-22.06-13.66-14.08-6.18-29.56-8.73-45.3-7.3-24.51,2.24-46.69,13.89-62.45,32.81-.24.28-.46.58-.69.87-1.68,2.07-3.27,4.19-4.75,6.37-11.1,16.35-16.68,35.82-15.81,55.75l.31,7.17,35-6.25-.1-3.36c-.4-13.86,4.27-27.35,13.13-38,20.08-24.11,56.04-27.39,80.15-7.31.88.73,1.73,1.5,2.56,2.28,10.14,9.52,16.39,22.27,17.67,36.29.09.95.15,1.91.19,2.85.6,14.15-4,27.81-13.1,38.73-8.86,10.65-21.29,17.67-34.99,19.77l-20.93,3.86-66.09,11.79,6.18,34.59,6.98-1.21c14.84-2.58,89.44-15.66,100.3-20.17,13.94-5.79,26.26-14.8,35.64-26.06Z"></path><path class="cls-2" d="m21.35,187.42C5.6,206.34-1.85,230.26.39,254.78c1.4,15.37,6.51,29.83,14.78,42.35,4.92,7.45,10.97,14.22,18.02,20.1,6.78,5.64,14.2,10.22,22.06,13.66,14.08,6.18,29.56,8.73,45.3,7.3,24.51-2.24,46.69-13.89,62.45-32.81.24-.28.46-.58.69-.87,1.68-2.07,3.27-4.19,4.75-6.37,11.1-16.35,16.68-35.82,15.81-55.75l-.31-7.17-35,6.25.1,3.36c.4,13.86-4.27,27.35-13.13,38-20.08,24.11-56.04,27.39-80.15,7.31-.88-.73-1.73-1.5-2.56-2.28-10.14-9.52-16.39-22.27-17.67-36.29-.09-.95-.15-1.91-.19-2.85-.6-14.15,4-27.81,13.1-38.73,8.86-10.65,21.29-17.67,34.99-19.77l20.93-3.86,66.09-11.79-6.18-34.59-6.98,1.21c-14.84,2.58-89.44,15.66-100.3,20.17-13.94,5.79-26.26,14.8-35.64,26.06Z"></path></g></g><polygon class="cls-1" points="457.7 329.19 446.43 329.19 446.43 343.71 425.52 343.71 425.52 329.19 385.42 329.19 385.42 315.21 419.45 267.85 441.66 267.85 410.73 312.18 426.17 312.18 426.17 299.28 446.43 299.28 446.43 312.18 457.7 312.18 457.7 329.19"></polygon></g></g></svg>